<?xml version="1.0"?>
<svg xmlns="http://www.w3.org/2000/svg" viewBox="0 0 64 64" width="512" height="512"><g id="blueray" fill="#fff"><rect x="49" y="50" width="2" height="2"/><rect x="46" y="50" width="2" height="2"/><rect x="49" y="47" width="2" height="2"/><path d="M32,2A30,30,0,1,0,62,32,30.034,30.034,0,0,0,32,2Zm0,58A28,28,0,1,1,60,32,28.032,28.032,0,0,1,32,60Z"/><path d="M53.322,23.376l1.854-.752A24.923,24.923,0,0,0,32,7V9A22.93,22.93,0,0,1,53.322,23.376Z"/><path d="M48.966,23.452l1.785-.9A20.927,20.927,0,0,0,32,11v2A18.936,18.936,0,0,1,48.966,23.452Z"/><path d="M15.034,40.548l-1.785.9A20.927,20.927,0,0,0,32,53V51A18.936,18.936,0,0,1,15.034,40.548Z"/><path d="M10.678,40.624l-1.854.752A24.923,24.923,0,0,0,32,57V55A22.93,22.93,0,0,1,10.678,40.624Z"/><path d="M16,35V29a3,3,0,0,0-3-3H10V38h3A3,3,0,0,0,16,35Zm-3-7a1,1,0,0,1,1,1v2H12V28Zm-1,5h2v2a1,1,0,0,1-1,1H12Z"/><path d="M17,26v9a3,3,0,0,0,3,3h3V36H20a1,1,0,0,1-1-1V26Z"/><path d="M24,26v9a3,3,0,0,0,6,0V26H28v9a1,1,0,0,1-2,0V26Z"/><path d="M18,22a3,3,0,0,0,3-3V10h4V8H19v8.184A2.966,2.966,0,0,0,18,16a3,3,0,0,0,0,6Zm0-4a1,1,0,1,1-1,1A1,1,0,0,1,18,18Z"/><path d="M42,50.184A2.966,2.966,0,0,0,41,50a3,3,0,1,0,3,3V44h4V42H42ZM41,54a1,1,0,1,1,1-1A1,1,0,0,1,41,54Z"/><path d="M47,38V29a3,3,0,0,0-6,0v9h2V33h2v5Zm-4-7V29a1,1,0,0,1,2,0v2Z"/><polygon points="52 31 50 31 50 26 48 26 48 33 50 33 50 38 52 38 52 33 54 33 54 26 52 26 52 31"/><rect x="31" y="31" width="2" height="2"/><path d="M38.014,38.165l1.972-.33L39.18,33H40V29a3,3,0,0,0-6,0v9h2V33h1.153ZM36,29a1,1,0,0,1,2,0v2H36Z"/></g></svg>
