<?xml version="1.0" encoding="utf-8"?>
<svg viewBox="1891.57 535.062 1863.492 1501.191" xmlns="http://www.w3.org/2000/svg">
  <defs>
    <style type="text/css">.st0{fill:#0E517F;}
	.st1{fill:#8AC0E3;}
	.st2{fill:#1C88CA;}</style>
  </defs>
  <g stroke="null" id="svg_1">
    <g stroke="null" id="Logo_1_">
      <polygon stroke="null" class="st0" points="2741.36279296875,535.0617370605469 2414.237548828125,862.1871032714844 2554.575927734375,1002.5254821777344 2741.36279296875,815.7386169433594 3096.0703125,1170.4463806152344 3236.40869140625,1030.1078796386719 " id="svg_2"/>
      <g stroke="null" id="svg_3">
        <rect stroke="null" x="3167.68852" y="131.90686" transform="matrix(0.39006803027899006,-0.39006803027899006,0.39006803027899006,0.39006803027899006,604.5036927390182,1863.436167174918) " class="st1" width="359.8" height="837.9" id="svg_4"/>
        <g stroke="null" id="svg_5">
          <polygon stroke="null" class="st0" points="3096.0703125,1174.3078308105469 3591.1162109375,679.2616882324219 3450.77783203125,538.9232482910156 2955.732177734375,1033.9693298339844 " id="svg_6"/>
          <polygon stroke="null" class="st2" points="2927.9287109375,1061.7170104980469 2741.36279296875,1248.3385925292969 2386.544921875,893.5756530761719 2246.20654296875,1033.9141540527344 2741.36279296875,1529.0153503417969 3068.322509765625,1202.1105651855469 " id="svg_7"/>
        </g>
      </g>
    </g>
    <g stroke="null" id="svg_8">
      <g stroke="null" id="svg_9">
        <path stroke="null" class="st0" d="m1924.15604,1694.83976c5.46128,0 6.89556,3.25471 7.99885,7.6127l40.71139,221.04407l44.02126,-221.43022c0.38615,-4.02701 3.25471,-7.28171 7.28171,-7.28171l28.74069,0c4.35799,0 6.89556,3.25471 7.99885,7.28171l44.02126,221.43022l40.3804,-221.04407c1.10329,-4.35799 3.25471,-7.6127 7.99885,-7.6127l22.56227,0c5.46128,0 7.6127,2.92372 6.89556,8.385l-45.45553,246.53005c-0.38615,4.35799 -3.25471,7.6127 -7.6127,7.6127l-43.6351,0c-4.35799,0 -6.89556,-2.53757 -7.28171,-7.28171l-39.99425,-202.89495l-39.99425,202.89495c-0.71714,4.74414 -3.25471,7.28171 -7.6127,7.28171l-43.24895,0c-4.35799,0 -6.89556,-3.25471 -7.99885,-7.6127l-45.45553,-246.86104c-0.71714,-5.46128 1.43427,-7.99885 6.89556,-7.99885l22.78293,0l0,-0.05516z" id="svg_10"/>
        <path stroke="null" class="st0" d="m2213.93505,1814.10535c0,-24.71369 16.38385,-40.3804 39.99425,-40.3804l71.2725,0c23.6104,0 39.99425,15.61155 39.99425,40.3804l0,30.8921c0,23.27941 -16.71484,39.27711 -38.89095,39.27711l-74.91336,0l0,19.63856c0,13.46013 9.10214,22.17612 22.17612,22.17612l70.55537,0c5.46128,0 8.385,2.53757 8.385,7.99885l0,14.89441c0,5.46128 -2.92372,8.385 -8.385,8.385l-89.09063,0c-24.71369,0 -41.09754,-16.38385 -41.09754,-41.42853l0,-101.83363l0,0.00001zm37.45668,50.91681l61.45323,-5.07513c11.25356,-1.10329 17.43197,-8.385 17.43197,-18.53526l0,-19.2524c0,-11.25356 -7.6127,-18.92142 -18.20428,-18.92142l-41.42853,0c-11.25356,0 -19.2524,7.28171 -19.2524,19.2524l0,42.53181l0.00001,0z" id="svg_11"/>
        <path stroke="null" class="st0" d="m2440.10941,1668.63662c5.46128,0 8.385,2.92372 8.385,8.385l0,103.65405l60.73609,-5.79227c6.89556,-1.10329 14.17727,-1.10329 16.71484,-1.10329c24.3827,0 39.60809,15.61155 39.60809,39.99425l0,104.70218c0,23.6104 -15.9977,39.99425 -39.60809,39.99425c-2.92372,0 -11.63971,-1.10329 -18.92142,-1.43427l-58.52951,-5.79227l-4.74414,6.17842l-24.3827,0c-5.46128,0 -8.385,-2.92372 -8.385,-8.71599l0,-271.6299c0,-5.46128 2.92372,-8.385 8.385,-8.385l20.74184,0l0,-0.05516l0,0.00001zm8.32984,136.36659l0,122.18932l60.01896,0c12.02586,0 19.63856,-7.6127 19.63856,-19.63856l0,-82.91221c0,-11.63971 -7.6127,-19.63856 -19.63856,-19.63856l-60.01896,0z" id="svg_12"/>
        <path stroke="null" class="st0" d="m2644.05249,1668.63662c5.46128,0 8.385,2.92372 8.385,8.385l0,103.65405l60.73609,-5.79227c6.89556,-1.10329 14.17727,-1.10329 16.71484,-1.10329c24.3827,0 39.60809,15.61155 39.60809,39.99425l0,104.70218c0,23.6104 -15.9977,39.99425 -39.60809,39.99425c-2.92372,0 -11.63971,-1.10329 -18.92142,-1.43427l-58.52951,-5.79227l-4.74414,6.17842l-24.3827,0c-5.46128,0 -8.385,-2.92372 -8.385,-8.71599l0,-271.6299c0,-5.46128 2.92372,-8.385 8.385,-8.385l20.74184,0l0,-0.05516l0,0.00001zm8.385,136.36659l0,122.18932l60.01896,0c12.02586,0 19.63856,-7.6127 19.63856,-19.63856l0,-82.91221c0,-11.63971 -7.6127,-19.63856 -19.63856,-19.63856l-60.01896,0z" id="svg_13"/>
        <path stroke="null" class="st0" d="m2837.84531,1773.72496c4.02701,0 6.17842,1.82043 7.28171,5.79227l43.24895,150.15771l43.6351,-149.82672c1.10329,-3.25471 4.35799,-6.17842 7.6127,-6.17842l22.17612,0c4.74414,0 9.10214,3.64086 7.28171,9.10214l-71.60349,246.58522c-0.71714,4.74414 -3.25471,6.89556 -7.28171,6.89556l-21.40382,0c-4.74414,0 -9.10214,-4.35799 -7.99885,-9.81927l20.74184,-69.06593l-17.81812,0c-4.02701,0 -6.56458,-2.20658 -7.28171,-6.17842l-48.37925,-167.97584c-1.10329,-5.46128 1.82043,-9.43312 7.6127,-9.43312l22.17612,0l0,-0.05516l-0.00001,-0.00001z" id="svg_14"/>
      </g>
      <g stroke="null" id="svg_15">
        <path stroke="null" class="st2" d="m3088.01622,1921.01412c0,2.53757 2.53757,5.07513 5.07513,5.07513l100.0132,0c5.46128,0 8.385,2.92372 8.385,8.385l0,14.56343c0,5.46128 -2.92372,8.385 -8.385,8.385l-134.16001,0c-5.46128,0 -8.385,-2.92372 -8.385,-8.385l0,-245.81291c0,-5.46128 2.92372,-8.385 8.385,-8.385l20.74184,0c5.46128,0 8.385,2.92372 8.385,8.385l0,217.78936l-0.05516,0l0,-0.00001z" id="svg_16"/>
        <path stroke="null" class="st2" d="m3342.93128,1773.72496c24.71369,0 41.42853,16.71484 41.42853,41.81467l0,133.05672c0,5.79227 -2.92372,8.71599 -8.385,8.71599l-24.3827,0l-4.74414,-6.17842l-55.60579,5.79227c-8.385,1.10329 -15.9977,1.43427 -18.53526,1.43427c-23.6104,0 -39.60809,-16.38385 -39.60809,-39.99425l0,-32.71254c0,-23.6104 15.9977,-39.99425 39.60809,-39.99425c2.53757,0 9.81927,0.38615 16.71484,1.43427l57.42623,5.79227l0,-26.42379c0,-14.17727 -8.71599,-21.45898 -22.89326,-21.45898l-73.42392,0c-5.46128,0 -8.385,-2.92372 -8.385,-8.385l0,-14.56343c0,-5.46128 2.92372,-8.385 8.385,-8.385l92.4005,0l0,0.05516l-0.00001,0.00001zm-55.99195,99.29606c-11.25356,0 -18.92142,7.28171 -18.92142,18.92142l0,18.92142c0,11.63971 7.6127,19.2524 18.92142,19.2524l60.01896,0l0,-57.09524l-60.01896,0z" id="svg_17"/>
        <path stroke="null" class="st2" d="m3462.91402,1668.63662c5.46128,0 8.385,2.92372 8.385,8.385l0,103.65405l60.73609,-5.79227c6.89556,-1.10329 14.17727,-1.10329 16.71484,-1.10329c24.3827,0 39.60809,15.61155 39.60809,39.99425l0,104.70218c0,23.6104 -15.9977,39.99425 -39.60809,39.99425c-2.92372,0 -11.63971,-1.10329 -18.92142,-1.43427l-58.52951,-5.79227l-4.74414,6.17842l-24.3827,0c-5.46128,0 -8.385,-2.92372 -8.385,-8.71599l0,-271.6299c0,-5.46128 2.92372,-8.385 8.385,-8.385l20.74184,0l0,-0.05516l0,0.00001zm8.32984,136.36659l0,122.18932l60.01896,0c11.97069,0 19.63856,-7.6127 19.63856,-19.63856l0,-82.91221c0,-11.63971 -7.6127,-19.63856 -19.63856,-19.63856l-60.01896,0z" id="svg_18"/>
      </g>
    </g>
  </g>
  <text fill="#1c88ca" stroke="#000" stroke-width="0" x="3413.349" y="1582.433" id="svg_54" font-size="155" font-family="Helvetica, Arial, sans-serif" text-anchor="start" font-weight="bold" style="white-space: pre; font-size: 155px;">Task</text>
  <text fill="#0e517f" stroke="#000" stroke-width="0" x="3108.029" y="1582.511" id="svg_55" font-size="155" font-family="Helvetica, Arial, sans-serif" text-anchor="start" font-style="normal" font-weight="bold" style="white-space: pre; font-size: 155px;">Test</text>
</svg>