<svg id="Capa_1" enable-background="new 0 0 512 512" height="512" viewBox="0 0 512 512" width="512" xmlns="http://www.w3.org/2000/svg" fill="#fff"><path d="m504.5 98.994h-497c-4.142 0-7.5 3.358-7.5 7.5v299.012c0 4.142 3.358 7.5 7.5 7.5h497c4.142 0 7.5-3.358 7.5-7.5v-299.012c0-4.142-3.358-7.5-7.5-7.5zm-489.5 299.012v-222.506h21.75c4.142 0 7.5-3.358 7.5-7.5v-14h60.75c9.674 0 9.674-15 0-15h-68.25c-4.142 0-7.5 3.358-7.5 7.5v14h-14.25v-46.506h482v46.506h-14.25v-14c0-4.142-3.358-7.5-7.5-7.5h-322.25c-9.674 0-9.674 15 0 15h314.75v14c0 4.142 3.358 7.5 7.5 7.5h21.75v222.506z"/><path d="m418.521 199.166h-57.603c-.385-.061-.776-.102-1.179-.102h-207.479c-.402 0-.794.041-1.179.102h-57.602c-26.77 0-48.548 21.779-48.548 48.548v62.316c0 26.77 21.779 48.548 48.548 48.548h57.603c.385.061.776.102 1.179.102h207.479c.402 0 .794-.041 1.179-.102h57.603c26.77 0 48.548-21.779 48.548-48.548 0-9.674-15-9.674-15 0 0 18.499-15.05 33.548-33.548 33.548h-40.725c30.325-5.975 53.271-32.757 53.271-64.808 0-31.7-22.447-58.246-52.279-64.604h39.733c18.499 0 33.548 15.05 33.548 33.548v22.286c0 9.674 15 9.674 15 0v-22.286c0-26.769-21.779-48.548-48.549-48.548zm-273.761 93.6c-6.764-1.077-11.955-6.934-11.955-13.996s5.191-12.919 11.955-13.996zm0-43.091c-15.054 1.146-26.955 13.753-26.955 29.095s11.901 27.949 26.955 29.095v21.91c-27.122-1.175-48.827-23.599-48.827-51.005s21.705-49.83 48.827-51.005zm15 93.904v-129.413h192.48v129.413zm207.48-78.804c6.764 1.077 11.955 6.934 11.955 13.996s-5.191 12.919-11.955 13.996zm-307.31 45.255v-62.316c0-18.499 15.05-33.548 33.548-33.548h39.733c-29.831 6.358-52.279 32.905-52.279 64.604 0 32.051 22.946 58.833 53.271 64.808h-40.724c-18.499.001-33.549-15.049-33.549-33.548zm356.137-31.259c0 27.406-21.705 49.831-48.827 51.005v-21.91c15.054-1.146 26.955-13.753 26.955-29.095s-11.901-27.949-26.955-29.095v-21.909c27.122 1.173 48.827 23.598 48.827 51.004z"/><path d="m195.007 254.051h120.943c9.674 0 9.674-15 0-15h-120.943c-9.674 0-9.674 15 0 15z"/><path d="m195.528 286.373h120.943c9.674 0 9.674-15 0-15h-120.943c-9.674 0-9.674 15 0 15z"/><path d="m316.993 303.693h-120.943c-9.674 0-9.674 15 0 15h120.943c9.674 0 9.674-15 0-15z"/></svg>
